<svg width="306" height="103" viewBox="0 0 306 103" fill="none" xmlns="http://www.w3.org/2000/svg">
<path d="M137.371 98.5C133.371 98.5 132.371 97.5 132.371 92.5V50.2C133.95 49.0591 135.825 48.3993 137.771 48.3C140.871 48.3 143.571 49.6 147.871 54.7C149.171 56.3 150.371 57 151.671 57C153.671 57 154.871 55.7 154.871 53.4V38H151.871C148.183 37.9397 144.526 38.6872 141.157 40.1901C137.789 41.6931 134.79 43.915 132.371 46.7V38H108.371V41.5H112.371C116.371 41.5 117.371 42.5 117.371 47.5V92.5C117.371 97.5 116.371 98.5 112.371 98.5H108.371V102H145.371V98.5H137.371ZM158.871 41.5H161.571C165.571 41.5 166.571 42.5 166.571 47.5V92.5C166.571 97.5 165.571 98.5 161.571 98.5H157.171V102H190.271V98.5H186.571C182.571 98.5 181.571 97.5 181.571 92.5V38H158.871V41.5ZM195.771 102H199.471V101C199.471 98.7 201.171 98.8 203.171 99.5C210.871 102.2 214.771 103 220.871 103C237.171 103 244.871 95.4 244.871 82.7C244.871 74.2 239.971 66.7 227.671 63.1L211.571 58.4C203.871 56.1 201.571 53 201.571 49.7C201.571 46.4 204.571 43.4 209.471 43.4C216.971 43.4 224.171 48 234.671 56.3C235.522 57.0952 236.612 57.5873 237.771 57.7C239.771 57.7 240.971 56.4 240.971 54.1V38H237.271V39C237.271 40.7 236.171 41.5 234.071 40.7C226.671 37.9 222.171 37 217.971 37C203.471 37 196.371 45.2 196.371 56.9C196.371 65.3 202.171 72.4 215.571 76.5L229.971 80.9C237.171 83.1 239.671 86 239.671 89.9C239.671 93.8 236.371 96.6 231.471 96.6C224.671 96.6 215.671 93.2 202.471 83C201.502 82.094 200.282 81.5015 198.971 81.3C196.971 81.3 195.771 82.6 195.771 84.9V102ZM258.171 83.9C258.171 96.3 265.471 103 279.071 103C285.471 103 295.171 101.2 302.671 98.7V87C302.671 84.7 301.471 83.4 299.471 83.4C298.271 83.4 297.171 84.1 295.971 85.9C288.771 96.7 283.171 99.6 278.571 99.6C274.571 99.6 273.171 97.8 273.171 92.7V49.5H305.071V38H273.171V14H269.471V14.7C269.471 29 260.671 40.4 248.171 42.8V49.5H258.171V83.9ZM166.571 30H181.571V12.5H166.571V30ZM85.271 64V88.3C79.471 91.9 72.971 94 67.471 94C40.071 94 15.471 64.1 15.471 33C15.471 18.4 25.071 6.9 41.771 6.9C52.271 6.9 72.671 13.6 87.771 29.8C88.2298 30.38 88.8049 30.8576 89.4593 31.2021C90.1138 31.5465 90.8331 31.7502 91.571 31.8C93.571 31.8 94.771 30.5 94.771 28.2V2H91.071V3C91.071 6.6 88.971 7.6 83.771 6C73.3336 2.50408 62.3766 0.813193 51.371 1C18.471 1 0.370972 26.8 0.370972 52C0.370972 80.8 22.271 103 51.371 103C63.5189 102.914 75.3492 99.11 85.271 92.1V102H99.771V50H46.771V64H85.271Z" fill="white"/>
</svg>
