<?xml version="1.0" encoding="UTF-8"?><svg id="Layer_1" xmlns="http://www.w3.org/2000/svg" viewBox="0 0 266.49 167.09"><defs><style>.cls-1{fill:#fff;}.cls-1,.cls-2{stroke-width:0px;}.cls-2{fill:#ec1d24;}</style></defs><path class="cls-1" d="M42.77,0h14.34l11.81,64.66h.28L78.9,0h16.31l-17.85,101.49h-14.62l-12.65-67.05h-.28l-11.81,67.05h-14.62L4.12,0h16.31l10.68,64.66h.28L42.77,0Z"/><path class="cls-1" d="M99.28,0h25.87c18.7,0,26.99,9.56,26.99,26.85,0,8.72-3.66,17.85-12.09,21.23,8.86,3.94,14.06,10.96,14.06,24.04,0,16.73-7.45,29.38-27.27,29.38h-27.55V0ZM116.71,41.61h6.33c6.61,0,11.67-4.5,11.67-12.93,0-9.42-3.66-14.34-11.39-14.34h-6.61v27.27ZM116.71,87.16h7.31c9.28,0,12.65-5.34,12.65-15.6s-3.94-15.6-14.34-15.6h-5.62v31.21Z"/><path class="cls-1" d="M162.54,101.49V0h46.67v15.18h-29.24v26.15h22.49v15.18h-22.49v29.8h31.21v15.18h-48.64Z"/><path class="cls-1" d="M219.6,15.18V0h46.11v16.59l-32.05,69.73h32.05v15.18h-50.04v-16.59L248.14,15.18h-28.54Z"/><path class="cls-2" d="M27.91,153.29c0,4.93,2.16,6.28,5.54,6.28s5.54-1.35,5.54-6.28v-2.96h8.5v1.85c0,10.96-5.79,14.91-14.05,14.91s-14.05-3.94-14.05-14.91v-15.89c0-10.96,5.79-14.91,14.05-14.91s14.05,3.94,14.05,14.91v.12h-8.5v-1.23c0-4.93-2.16-6.28-5.54-6.28s-5.54,1.36-5.54,6.28v18.11Z"/><path class="cls-2" d="M57.97,166.48v-44.48h8.5v17.74h12.01v-17.74h8.5v44.48h-8.5v-19.22h-12.01v19.22h-8.5Z"/><path class="cls-2" d="M98.68,166.48v-44.48h8.5v44.48h-8.5Z"/><path class="cls-2" d="M126.15,153.29c0,4.93,2.16,6.28,5.54,6.28s5.54-1.35,5.54-6.28v-2.96h8.5v1.85c0,10.96-5.79,14.91-14.05,14.91s-14.05-3.94-14.05-14.91v-15.89c0-10.96,5.79-14.91,14.05-14.91s14.05,3.94,14.05,14.91v.12h-8.5v-1.23c0-4.93-2.16-6.28-5.54-6.28s-5.54,1.36-5.54,6.28v18.11Z"/><path class="cls-2" d="M152.7,166.48l11.03-44.48h10.9l10.72,44.48h-8.13l-2.16-9.36h-11.77l-2.4,9.36h-8.19ZM164.84,149.6h8.44l-4.13-17.99h-.12l-4.19,17.99Z"/><path class="cls-2" d="M214.3,162.78c-2.28,2.59-4.74,4.31-7.95,4.31-8.25,0-14.05-3.94-14.05-14.91v-15.89c0-10.96,5.79-14.91,14.05-14.91,8.69,0,13.37,4.99,13.67,15.09h-8.5c0-5.73-2.09-7.58-5.17-7.58-3.39,0-5.54,1.36-5.54,6.28v18.11c0,4.93,2.16,6.28,5.54,6.28,3.2,0,5.17-2.34,5.17-6.16v-2.71h-5.98v-7.02h14.48v22.79h-4.43l-1.29-3.7Z"/><path class="cls-2" d="M229.64,136.29c0-10.96,5.79-14.91,14.05-14.91s14.05,3.94,14.05,14.91v15.89c0,10.96-5.79,14.91-14.05,14.91s-14.05-3.94-14.05-14.91v-15.89ZM238.14,153.29c0,4.93,2.16,6.28,5.54,6.28s5.54-1.35,5.54-6.28v-18.11c0-4.93-2.16-6.28-5.54-6.28s-5.54,1.36-5.54,6.28v18.11Z"/></svg>